# xmcd
#
# Track frame offsets:
#	150
#	19977
#	36494
#	51602
#	79352
#	97366
#	117349
#	131045
#	145752
#	164812
#
# Disc length: 2586 seconds
#
# Revision: 0
# Processed by: cddbd v1.5.2PL0 Copyright (c) Steve Scherf et al.
# Submitted via: EasyCDDAExtractor 11.1.0.1
#
DISCID=a10a180a
DTITLE=Bernie Leadon and Michael Georgiades - Natural Progressions
DYEAR=1977
DGENRE=Country
TTITLE0=Callin For Your Love
TTITLE1=How Can You Live Without Love
TTITLE2=Breathe
TTITLE3=Rotation
TTITLE4=Youre the Singer
TTITLE5=Tropical Winter
TTITLE6=As Time Goes On
TTITLE7=The Sparrow
TTITLE8=At Love Again
TTITLE9=Glass Off
EXTD=
EXTT0=
EXTT1=
EXTT2=
EXTT3=
EXTT4=
EXTT5=
EXTT6=
EXTT7=
EXTT8=
EXTT9=
PLAYORDER=
